<?xml version="1.0" encoding="UTF-8" standalone="no"?>
<svg
   xmlns:dc="http://purl.org/dc/elements/1.1/"
   xmlns:cc="http://creativecommons.org/ns#"
   xmlns:rdf="http://www.w3.org/1999/02/22-rdf-syntax-ns#"
   xmlns:svg="http://www.w3.org/2000/svg"
   xmlns="http://www.w3.org/2000/svg"
   version="1.1"
   viewBox="0 0 151 247"
   data-name="Layer 1"
   id="Layer_1">
  <metadata
     id="metadata15">
    <rdf:RDF>
      <cc:Work
         rdf:about="">
        <dc:format>image/svg+xml</dc:format>
        <dc:type
           rdf:resource="http://purl.org/dc/dcmitype/StillImage" />
        <dc:title>cyan_player</dc:title>
      </cc:Work>
    </rdf:RDF>
  </metadata>
  <defs
     id="defs4">
    <style
       id="style2">.cls-1{fill:#37ffff;}</style>
  </defs>
  <title
     id="title6">cyan_player</title>
  <ellipse
     style="fill:#ffffff;fill-opacity:1"
     id="ellipse8"
     ry="30.5"
     rx="75.5"
     cy="30.5"
     cx="75.5"
     class="cls-1" />
  <path
     style="fill:#ffffff;fill-opacity:1"
     id="path10"
     transform="translate(-862 -584)"
     d="M937,655c-50,0-75-23-75-23V774.75A56.24,56.24,0,0,0,918.25,831h38.5A56.24,56.24,0,0,0,1013,774.75V632S987,655,937,655Zm-35.5,75A17.5,17.5,0,1,1,919,712.5,17.51,17.51,0,0,1,901.5,730Zm72,0A17.5,17.5,0,1,1,991,712.5,17.51,17.51,0,0,1,973.5,730Z"
     class="cls-1" />
</svg>
